<svg width="24" height="24" viewBox="0 0 24 24" fill="none" xmlns="http://www.w3.org/2000/svg">
<path d="M13.0597 11.9987L18.5397 6.51871C18.8297 6.22871 18.8297 5.74871 18.5397 5.45871C18.2497 5.16871 17.7697 5.16871 17.4797 5.45871L11.9997 10.9387L6.51969 5.45871C6.22969 5.16871 5.74969 5.16871 5.45969 5.45871C5.16969 5.74871 5.16969 6.22871 5.45969 6.51871L10.9397 11.9987L5.45969 17.4787C5.16969 17.7687 5.16969 18.2487 5.45969 18.5387C5.60969 18.6887 5.79969 18.7587 5.98969 18.7587C6.17969 18.7587 6.36969 18.6887 6.51969 18.5387L11.9997 13.0587L17.4797 18.5387C17.6297 18.6887 17.8197 18.7587 18.0097 18.7587C18.1997 18.7587 18.3897 18.6887 18.5397 18.5387C18.8297 18.2487 18.8297 17.7687 18.5397 17.4787L13.0597 11.9987Z" fill="#343434"/>
</svg>
