<svg width="24" height="25" viewBox="0 0 24 25" fill="none" xmlns="http://www.w3.org/2000/svg">
<path d="M20.611 19.9719H18.987L18.663 18.3529L19.519 17.0679C19.71 16.7809 19.632 16.3929 19.345 16.2009C19.057 16.0079 18.67 16.0869 18.478 16.3739L17.716 17.5169L17.978 15.4229C18.037 14.9609 17.893 14.4959 17.584 14.1459C17.275 13.7959 16.831 13.5959 16.365 13.5959H14.631C14.165 13.5959 13.721 13.7969 13.412 14.1459C13.103 14.4949 12.96 14.9609 13.018 15.4219L13.28 17.5159L12.518 16.3729C12.326 16.0859 11.938 16.0089 11.651 16.1999C11.364 16.3909 11.286 16.7799 11.477 17.0669L12.333 18.3519L12.009 19.9709H8.827L12.736 11.1929L20.5 14.6499L20.806 13.9649C22.32 10.5649 19.76 6.1109 15.101 4.0359C10.447 1.9629 5.421 3.0409 3.907 6.4409L3.602 7.1259L11.367 10.5839L7.198 19.9469C7.194 19.9549 7.196 19.9639 7.192 19.9719H3.5C3.086 19.9719 2.75 20.3079 2.75 20.7219C2.75 21.1359 3.086 21.4719 3.5 21.4719H20.611C21.025 21.4719 21.361 21.1359 21.361 20.7219C21.361 20.3079 21.025 19.9719 20.611 19.9719ZM14.494 5.4069C15.225 5.7329 15.534 7.7239 14.546 10.3559L10.78 8.6789C12.075 6.1829 13.757 5.0799 14.494 5.4069ZM19.671 12.6379L15.918 10.9669C16.524 9.3819 16.756 7.8799 16.634 6.6649C18.872 8.3439 20.092 10.6609 19.671 12.6379ZM12.117 4.6659C11.136 5.3899 10.179 6.5639 9.409 8.0689L5.656 6.3979C6.841 4.7639 9.376 4.1299 12.117 4.6659ZM14.352 14.9739C14.394 14.9269 14.486 14.8469 14.633 14.8469H16.367C16.514 14.8469 16.606 14.9269 16.648 14.9739C16.69 15.0209 16.757 15.1219 16.739 15.2679L16.448 17.5969H14.551L14.26 15.2679C14.241 15.1219 14.309 15.0209 14.351 14.9739H14.352ZM13.513 18.8469H17.488L17.713 19.9719H13.289L13.514 18.8469H13.513Z" fill="white"/>
</svg>
