<svg width="24" height="24" viewBox="0 0 24 24" fill="none" xmlns="http://www.w3.org/2000/svg">
<path d="M14.8711 17.7803C15.6681 17.7803 16.4321 17.7833 17.1951 17.7733C17.2491 17.7733 17.3241 17.6763 17.3531 17.6093C18.8621 14.0443 20.3701 10.4783 21.8771 6.9113C21.9121 6.8283 21.9531 6.7453 21.9991 6.6193C21.8871 6.6193 21.7771 6.6203 21.6991 6.6203C21.1281 6.6203 20.2241 6.6243 19.6471 6.6123C19.6471 6.6123 19.6181 6.6893 19.5181 6.9223C18.1361 10.1513 16.7531 13.3793 15.3681 16.6063C15.2041 16.9883 15.0441 17.3723 14.8711 17.7803Z" fill="white"/>
<path d="M11.7645 16.7499L10.0415 15.0269C10.0175 15.0469 9.98848 15.0699 9.94548 15.1019C8.71248 16.0019 7.02748 15.9539 5.84648 14.9869C4.52948 13.9029 4.18948 11.7589 5.10248 10.2639C5.13148 10.2169 5.15448 10.1839 5.17348 10.1589L3.39548 8.38086C1.62848 10.2969 1.35548 13.9979 3.66048 16.2939C6.04548 18.6689 9.77848 18.4169 11.7645 16.7499Z" fill="white"/>
<path d="M5.83159 9.05476C6.92659 8.20076 8.43559 8.11176 9.62259 8.83176C10.9396 9.64676 11.5166 11.2098 11.2146 12.8388C11.1426 13.2938 11.0026 13.7348 10.7996 14.1478L12.5646 15.9518C14.2256 14.1348 14.6626 10.2858 12.2996 7.81076C9.91159 5.31076 6.07959 5.55576 4.10059 7.29776L5.82459 9.06076L5.83159 9.05476Z" fill="white"/>
<path d="M17.5759 8.53979L18.3939 6.63379H14.0619C14.0619 7.24079 14.0589 7.94479 14.0689 8.53979C14.0689 8.53979 16.3809 8.54479 17.5759 8.53979Z" fill="white"/>
</svg>
