<svg width="24" height="24" viewBox="0 0 24 24" fill="none" xmlns="http://www.w3.org/2000/svg">
<path d="M14.202 13.5H9.799C7.704 13.5 6 15.204 6 17.298C6 17.574 6.224 17.798 6.5 17.798C6.776 17.798 7 17.574 7 17.298C7 15.755 8.256 14.5 9.799 14.5H14.202C15.745 14.5 17 15.755 17 17.298C17 17.574 17.224 17.798 17.5 17.798C17.776 17.798 18 17.574 18 17.298C18 15.204 16.296 13.5 14.202 13.5Z" fill="white"/>
<path d="M12 12.5C13.93 12.5 15.5 10.93 15.5 9C15.5 7.07 13.93 5.5 12 5.5C10.07 5.5 8.5 7.07 8.5 9C8.5 10.93 10.07 12.5 12 12.5ZM12 6.5C13.379 6.5 14.5 7.622 14.5 9C14.5 10.378 13.379 11.5 12 11.5C10.621 11.5 9.5 10.378 9.5 9C9.5 7.622 10.621 6.5 12 6.5Z" fill="white"/>
<path d="M12 2C6.486 2 2 6.486 2 12C2 17.514 6.486 22 12 22C17.514 22 22 17.514 22 12C22 6.486 17.513 2 12 2ZM12 21C7.037 21 3 16.962 3 12C3 7.038 7.037 3 12 3C16.963 3 21 7.038 21 12C21 16.962 16.963 21 12 21Z" fill="white"/>
</svg>
