<svg width="24" height="25" viewBox="0 0 24 25" fill="none" xmlns="http://www.w3.org/2000/svg">
<path d="M3.5 18.9717C3.086 18.9717 2.75 19.3077 2.75 19.7217C2.75 20.1357 3.086 20.4717 3.5 20.4717H20.5C20.914 20.4717 21.25 20.1357 21.25 19.7217C21.25 19.3077 20.914 18.9717 20.5 18.9717H3.5Z" fill="white"/>
<path d="M21.9302 7.17185C22.1312 6.65085 22.0762 6.08085 21.7792 5.60885C21.4822 5.13685 20.9912 4.84085 20.4332 4.79685L19.3962 4.71685C18.5942 4.65885 17.7842 4.85885 17.1062 5.28985L14.8422 6.72885L7.57128 4.88485C6.96328 4.74185 6.31728 4.86285 5.76928 5.23485L3.71828 6.77385C3.51028 6.92885 3.39828 7.18185 3.42128 7.44085C3.44428 7.69985 3.60028 7.92685 3.83228 8.04485L8.82828 10.5499L7.31528 11.5109L4.56328 10.6499C4.35028 10.5839 4.12228 10.6149 3.93728 10.7329L2.29728 11.7769C2.10728 11.8979 1.98228 12.0969 1.95428 12.3209C1.92828 12.5439 2.00328 12.7669 2.15828 12.9289L5.33828 16.2399C5.48028 16.3869 5.67528 16.4699 5.87928 16.4699L9.58328 16.4719C9.72628 16.4719 9.86528 16.4309 9.98528 16.3549L20.0732 9.94285C20.7562 9.50785 21.2702 8.88085 21.5602 8.12685L21.9272 7.17285L21.9302 7.17185ZM20.5312 6.63185L20.1632 7.58685C19.9892 8.03885 19.6812 8.41585 19.2712 8.67685L9.36828 14.9719L6.20128 14.9699L3.87728 12.5499L4.45028 12.1859L7.20228 13.0459C7.41128 13.1099 7.64028 13.0809 7.82828 12.9629L10.7532 11.1059C10.9812 10.9609 11.1132 10.7059 11.1002 10.4349C11.0872 10.1639 10.9292 9.92285 10.6872 9.80185L5.58928 7.24585L6.64128 6.45585C6.81228 6.33885 7.02728 6.29985 7.21828 6.34285L14.7872 8.26285C14.9862 8.31385 15.2002 8.27985 15.3742 8.16885L17.9112 6.55585C18.3162 6.29785 18.8012 6.16785 19.2812 6.21285L20.3182 6.29285C20.4262 6.30085 20.4852 6.36885 20.5092 6.40785C20.5342 6.44785 20.5722 6.52885 20.5312 6.63185Z" fill="white"/>
</svg>
