<svg width="24" height="24" viewBox="0 0 24 24" fill="none" xmlns="http://www.w3.org/2000/svg">
<path d="M21.0549 13.1498C22.3259 12.9248 22.3349 11.3398 20.9629 11.2888C19.5909 11.2388 19.5079 11.9118 18.7399 11.1748C17.9709 10.4378 19.9339 7.74776 17.8939 7.87176C16.0199 7.98676 16.6219 13.5528 14.4529 12.6228C13.3839 12.1648 14.2849 10.5448 15.1309 7.86476C15.6149 6.33376 15.2479 5.22176 14.4569 5.19376C13.3719 5.15576 13.4719 7.83176 12.5819 8.00376C11.9939 8.11776 10.7439 4.60576 9.51882 5.42876C8.77782 5.92676 9.37881 7.38076 10.2609 8.74676C11.1429 10.1128 11.8609 12.2778 10.1939 12.3798C8.52682 12.4818 8.16981 10.3968 7.77781 8.42276C7.38581 6.44876 5.77181 6.58176 5.39481 7.64476C4.99481 8.77176 6.89082 10.7048 6.59682 11.2388C6.18282 11.9878 3.40981 9.65576 2.83981 11.0438C2.23481 12.5168 5.20881 12.7388 5.30581 13.5238C5.44681 14.6688 3.46181 13.8348 2.50581 14.1948C1.76281 14.4748 1.50381 16.1748 4.10081 16.2148C7.93281 16.2718 7.67782 18.6728 9.32782 19.7178C10.5629 20.7238 12.9649 21.1208 14.5609 20.3128C12.2519 20.2508 9.31982 18.2808 9.26182 17.2398C9.15182 15.2908 11.9749 17.8648 12.6049 16.9068C13.0269 16.2638 12.1569 15.5908 12.0719 14.2818C11.9859 12.9728 13.3979 12.8298 13.7189 14.0148C14.2369 15.9188 15.5739 16.3208 15.5799 15.6538C15.6029 13.2388 17.2619 13.3648 17.3849 15.6308C17.4139 16.1618 17.4429 16.6648 17.4319 17.1408C17.9339 17.0388 18.4469 17.0048 18.9579 17.0378C21.3299 17.1558 21.6609 15.1988 19.1489 14.9008C18.4569 14.8188 19.0139 13.5078 21.0539 13.1478L21.0549 13.1498Z" fill="white"/>
<path d="M20.7381 9.69627C21.1981 9.68027 21.5581 9.29527 21.5431 8.83527C21.5281 8.38627 21.1601 8.03027 20.7111 8.03027C20.2431 8.03827 19.8701 8.42327 19.8781 8.89127C19.8931 9.35127 20.2781 9.71127 20.7381 9.69627Z" fill="white"/>
<path d="M7.67427 3.25488C7.29127 3.26188 6.98627 3.57688 6.99227 3.95988C7.00527 4.33688 7.32027 4.63188 7.69727 4.61988C8.07427 4.60788 8.36927 4.29188 8.35727 3.91488C8.34527 3.54688 8.04227 3.25488 7.67427 3.25488Z" fill="white"/>
</svg>
