<svg width="24" height="25" viewBox="0 0 24 25" fill="none" xmlns="http://www.w3.org/2000/svg">
<path d="M17.5362 21.1724C17.3562 21.1724 17.1562 21.1524 16.9462 21.1024C16.9062 21.0924 16.8562 21.0824 16.8162 21.0624L3.10617 15.1824C3.10617 15.1824 3.02617 15.1424 2.98617 15.1224C2.87617 15.0524 2.32617 14.6324 2.32617 13.6324C2.32617 12.6924 2.91617 12.0824 2.98617 12.0124C3.03617 11.9624 3.08617 11.9224 3.14617 11.8924L19.0262 2.85238C19.0262 2.85238 19.1262 2.80238 19.1862 2.78238C19.7862 2.60238 21.0562 2.59238 21.6062 3.85238C21.6662 3.98238 21.6862 4.12238 21.6662 4.26238L19.4862 19.4924C19.4662 19.6024 19.3162 20.3924 18.6262 20.8524C18.3862 21.0124 18.0362 21.1624 17.5362 21.1624V21.1724ZM17.3362 19.6524C17.4862 19.6824 17.6662 19.6924 17.7862 19.6124C17.9262 19.5224 17.9962 19.3224 18.0062 19.2524L20.1362 4.32238C19.9862 4.17238 19.7862 4.19238 19.6762 4.21238L3.99617 13.1224C3.92617 13.2124 3.82617 13.4024 3.82617 13.6224C3.82617 13.7524 3.84617 13.8324 3.86617 13.8724L17.3362 19.6424V19.6524Z" fill="white"/>
<path d="M10.0366 22.2031C8.8766 22.2031 8.1766 21.3031 7.9366 20.7831C7.8966 20.6931 7.8766 20.5931 7.8766 20.5031L7.7666 16.6931C7.7666 16.5031 7.8266 16.3131 7.9666 16.1631L19.5266 3.45308C19.8066 3.14308 20.2766 3.12308 20.5866 3.40308C20.8966 3.68308 20.9166 4.15308 20.6366 4.46308L9.2766 16.9531L9.3666 20.2731C9.4666 20.4331 9.6966 20.7031 10.0366 20.7031C10.5566 20.7031 10.7966 20.3231 10.7966 20.3231C10.8166 20.2931 10.8366 20.2631 10.8566 20.2331L12.3766 18.2731C12.6266 17.9431 13.0966 17.8831 13.4266 18.1431C13.7566 18.3931 13.8166 18.8731 13.5566 19.1931L12.0566 21.1131C11.7866 21.5431 11.0966 22.2031 10.0266 22.2031H10.0366Z" fill="white"/>
</svg>
