<svg width="24" height="24" viewBox="0 0 24 24" fill="none" xmlns="http://www.w3.org/2000/svg">
<path d="M20.5 11.25H3.5C3.09 11.25 2.75 11.59 2.75 12C2.75 12.41 3.09 12.75 3.5 12.75H20.5C20.91 12.75 21.25 12.41 21.25 12C21.25 11.59 20.91 11.25 20.5 11.25Z" fill="white"/>
<path d="M20.5 17.2598H3.5C3.09 17.2598 2.75 17.5998 2.75 18.0098C2.75 18.4198 3.09 18.7598 3.5 18.7598H20.5C20.91 18.7598 21.25 18.4198 21.25 18.0098C21.25 17.5998 20.91 17.2598 20.5 17.2598Z" fill="white"/>
<path d="M3.5 6.74023H20.5C20.91 6.74023 21.25 6.40023 21.25 5.99023C21.25 5.58023 20.91 5.24023 20.5 5.24023H3.5C3.09 5.24023 2.75 5.58023 2.75 5.99023C2.75 6.40023 3.09 6.74023 3.5 6.74023Z" fill="white"/>
</svg>
