<svg width="16" height="16" viewBox="0 0 16 16" fill="none" xmlns="http://www.w3.org/2000/svg">
<path d="M9.89702 3.75473C9.76702 3.62473 9.55568 3.62473 9.42568 3.75473C9.29568 3.88473 9.29568 4.09607 9.42568 4.22607L12.8637 7.66407H2.33235C2.14835 7.66407 1.99902 7.8134 1.99902 7.9974C1.99902 8.1814 2.14835 8.33073 2.33235 8.33073H12.8637L9.42568 11.7687C9.29568 11.8987 9.29568 12.11 9.42568 12.24C9.49102 12.3054 9.57635 12.3374 9.66168 12.3374C9.74702 12.3374 9.83235 12.3047 9.89768 12.24L13.9051 8.23274C13.9677 8.17007 14.0024 8.0854 14.0024 7.99674C14.0024 7.90807 13.9671 7.8234 13.9051 7.76074L9.89702 3.75473Z" fill="white"/>
</svg>
