<svg width="24" height="24" viewBox="0 0 24 24" fill="none" xmlns="http://www.w3.org/2000/svg">
<path d="M12.0021 3L11.0821 4.412L10.1631 5.831C11.3661 5.502 12.6361 5.499 13.8401 5.824L12.0021 3Z" fill="white"/>
<path d="M15.3521 7.38581C14.5901 7.05681 13.7821 6.84581 12.9561 6.75781L16.0361 11.5048C15.3451 11.3078 14.6401 11.1658 13.9271 11.0798L17.9931 17.3438C17.2791 17.1408 16.5541 16.9768 15.8221 16.8538L18.5121 20.9908C19.1041 20.2968 19.5901 19.5178 19.9521 18.6808C20.8621 16.5418 20.8621 14.1238 19.9521 11.9848C19.0731 9.91381 17.4231 8.26481 15.3521 7.38581Z" fill="white"/>
<path d="M5.89273 9.24279C3.40973 11.7208 2.67873 15.4578 4.04573 18.6888C4.40173 19.5298 4.88673 20.3088 5.48373 20.9998L8.17273 16.8618C7.44173 16.9758 6.71873 17.1368 6.00773 17.3428L10.0698 11.0868C9.35773 11.1668 8.65473 11.3058 7.96573 11.5028L11.0468 6.75879C10.2238 6.84579 9.41873 7.05779 8.65873 7.38679C7.62973 7.82879 6.69173 8.45779 5.89273 9.24279Z" fill="white"/>
</svg>
